<svg width="696" height="117" viewBox="0 0 696 117" fill="none" xmlns="http://www.w3.org/2000/svg">
<circle cx="51.4198" cy="20.5802" r="13.5271" fill="url(#paint0_linear_103_352)" stroke="url(#paint1_linear_103_352)" stroke-width="2"/>
<path fill-rule="evenodd" clip-rule="evenodd" d="M51.4198 0C50.8021 0 50.3013 0.500764 50.3013 1.11849V4.69766C50.3013 5.31538 50.8021 5.81614 51.4198 5.81614C52.0375 5.81614 52.5383 5.31538 52.5383 4.69766V1.11849C52.5383 0.500765 52.0375 0 51.4198 0ZM51.4198 35.3443C50.8021 35.3443 50.3013 35.845 50.3013 36.4628V40.0419C50.3013 40.6596 50.8021 41.1604 51.4198 41.1604C52.0375 41.1604 52.5383 40.6596 52.5383 40.0419V36.4628C52.5383 35.845 52.0375 35.3443 51.4198 35.3443ZM60.182 3.16661C60.4909 2.63165 61.1749 2.44836 61.7099 2.75722C62.2449 3.06608 62.4282 3.75014 62.1193 4.2851L60.3297 7.38475C60.0208 7.91972 59.3368 8.10301 58.8018 7.79415C58.2669 7.48528 58.0836 6.80123 58.3924 6.26626L60.182 3.16661ZM44.0378 33.3663C43.5028 33.0574 42.8187 33.2407 42.5099 33.7756L40.7203 36.8753C40.4114 37.4103 40.5947 38.0943 41.1297 38.4032C41.6647 38.712 42.3487 38.5288 42.6576 37.9938L44.4472 34.8941C44.756 34.3592 44.5727 33.6751 44.0378 33.3663ZM67.7149 9.8807C68.2499 9.57184 68.9339 9.75513 69.2428 10.2901C69.5516 10.8251 69.3683 11.5091 68.8334 11.818L65.7337 13.6076C65.1988 13.9164 64.5147 13.7331 64.2059 13.1982C63.897 12.6632 64.0803 11.9791 64.6152 11.6703L67.7149 9.8807ZM38.6338 27.9622C38.3249 27.4273 37.6408 27.244 37.1059 27.5528L34.0062 29.3424C33.4713 29.6513 33.288 30.3353 33.5968 30.8703C33.9057 31.4053 34.5897 31.5886 35.1247 31.2797L38.2244 29.4901C38.7593 29.1813 38.9426 28.4972 38.6338 27.9622ZM70.8815 19.4617C71.4992 19.4617 72 19.9625 72 20.5802C72 21.1979 71.4992 21.6987 70.8815 21.6987H67.3024C66.6846 21.6987 66.1839 21.1979 66.1839 20.5802C66.1839 19.9625 66.6846 19.4617 67.3024 19.4617H70.8815ZM36.6557 20.5802C36.6557 19.9625 36.155 19.4617 35.5373 19.4617H31.9581C31.3404 19.4617 30.8396 19.9625 30.8396 20.5802C30.8396 21.1979 31.3404 21.6987 31.9581 21.6987H35.5373C36.155 21.6987 36.6557 21.1979 36.6557 20.5802ZM68.8334 29.3424C69.3684 29.6513 69.5516 30.3353 69.2428 30.8703C68.9339 31.4053 68.2499 31.5886 67.7149 31.2797L64.6152 29.4901C64.0803 29.1812 63.897 28.4972 64.2059 27.9622C64.5147 27.4273 65.1988 27.244 65.7337 27.5528L68.8334 29.3424ZM38.6338 13.1982C38.9426 12.6632 38.7593 11.9791 38.2244 11.6703L35.1247 9.8807C34.5897 9.57184 33.9057 9.75513 33.5968 10.2901C33.288 10.8251 33.4713 11.5091 34.0062 11.818L37.1059 13.6076C37.6408 13.9164 38.3249 13.7331 38.6338 13.1982ZM62.1193 36.8753C62.4282 37.4103 62.2449 38.0943 61.7099 38.4032C61.1749 38.712 60.4909 38.5287 60.182 37.9938L58.3924 34.8941C58.0836 34.3592 58.2669 33.6751 58.8018 33.3662C59.3368 33.0574 60.0208 33.2407 60.3297 33.7756L62.1193 36.8753ZM44.0378 7.79414C44.5727 7.48528 44.756 6.80122 44.4472 6.26625L42.6576 3.1666C42.3487 2.63164 41.6647 2.44835 41.1297 2.75721C40.5947 3.06607 40.4114 3.75013 40.7203 4.28509L42.5099 7.38474C42.8187 7.91971 43.5028 8.103 44.0378 7.79414Z" fill="url(#paint2_linear_103_352)"/>
<g filter="url(#filter0_bd_103_352)">
<mask id="path-3-outside-1_103_352" maskUnits="userSpaceOnUse" x="3" y="11.7201" width="62" height="39" fill="black">
<rect fill="white" x="3" y="11.7201" width="62" height="39"/>
<path fill-rule="evenodd" clip-rule="evenodd" d="M46.3621 29.5015C46.3621 30.0524 46.3338 30.5967 46.2787 31.133C47.979 29.6554 50.1996 28.7609 52.629 28.7609C57.9781 28.7609 62.3144 33.0971 62.3144 38.4462C62.3144 43.7953 57.9781 48.1315 52.629 48.1315C52.6261 48.1315 52.6232 48.1315 52.6203 48.1315H14.979C14.9761 48.1315 14.9731 48.1315 14.9702 48.1315C14.9673 48.1315 14.9643 48.1315 14.9614 48.1315H14.9132V48.1314C9.43305 48.1007 5 43.6487 5 38.1613C5 32.6941 9.40053 28.2547 14.8528 28.1918C15.5185 20.0887 22.3059 13.7201 30.5807 13.7201C39.2965 13.7201 46.3621 20.7857 46.3621 29.5015Z"/>
</mask>
<path fill-rule="evenodd" clip-rule="evenodd" d="M46.3621 29.5015C46.3621 30.0524 46.3338 30.5967 46.2787 31.133C47.979 29.6554 50.1996 28.7609 52.629 28.7609C57.9781 28.7609 62.3144 33.0971 62.3144 38.4462C62.3144 43.7953 57.9781 48.1315 52.629 48.1315C52.6261 48.1315 52.6232 48.1315 52.6203 48.1315H14.979C14.9761 48.1315 14.9731 48.1315 14.9702 48.1315C14.9673 48.1315 14.9643 48.1315 14.9614 48.1315H14.9132V48.1314C9.43305 48.1007 5 43.6487 5 38.1613C5 32.6941 9.40053 28.2547 14.8528 28.1918C15.5185 20.0887 22.3059 13.7201 30.5807 13.7201C39.2965 13.7201 46.3621 20.7857 46.3621 29.5015Z" fill="url(#paint3_linear_103_352)" shape-rendering="crispEdges"/>
<path d="M46.2787 31.133L44.2892 30.9287L43.7723 35.9611L47.5907 32.6426L46.2787 31.133ZM14.9132 48.1315H12.9132V50.1315H14.9132V48.1315ZM14.9132 48.1314H16.9132V46.1425L14.9244 46.1314L14.9132 48.1314ZM14.8528 28.1918L14.8759 30.1917L16.697 30.1707L16.8461 28.3556L14.8528 28.1918ZM48.2683 31.3374C48.3303 30.7333 48.3621 30.1208 48.3621 29.5015H44.3621C44.3621 29.984 44.3373 30.4601 44.2892 30.9287L48.2683 31.3374ZM52.629 26.7609C49.6993 26.7609 47.0171 27.8416 44.9668 29.6235L47.5907 32.6426C48.9409 31.4692 50.6998 30.7609 52.629 30.7609V26.7609ZM64.3144 38.4462C64.3144 31.9926 59.0827 26.7609 52.629 26.7609V30.7609C56.8735 30.7609 60.3144 34.2017 60.3144 38.4462H64.3144ZM52.629 50.1315C59.0827 50.1315 64.3144 44.8998 64.3144 38.4462H60.3144C60.3144 42.6907 56.8735 46.1315 52.629 46.1315V50.1315ZM52.6203 50.1315C52.621 50.1315 52.6218 50.1315 52.6234 50.1315C52.6247 50.1315 52.6268 50.1315 52.629 50.1315V46.1315C52.6284 46.1315 52.6276 46.1315 52.626 46.1315C52.6247 46.1315 52.6226 46.1315 52.6203 46.1315V50.1315ZM52.6203 46.1315H14.979V50.1315H52.6203V46.1315ZM14.9702 50.1315C14.9724 50.1315 14.9745 50.1315 14.9759 50.1315C14.9775 50.1315 14.9783 50.1315 14.979 50.1315V46.1315C14.9768 46.1315 14.9747 46.1315 14.9733 46.1315C14.9717 46.1315 14.9709 46.1315 14.9702 46.1315V50.1315ZM14.9614 50.1315C14.9621 50.1315 14.9629 50.1315 14.9645 50.1315C14.9658 50.1315 14.968 50.1315 14.9702 50.1315V46.1315C14.9695 46.1315 14.9687 46.1315 14.9671 46.1315C14.9657 46.1315 14.9636 46.1315 14.9614 46.1315V50.1315ZM14.9614 46.1315H14.9132V50.1315H14.9614V46.1315ZM16.9132 48.1315V48.1314H12.9132V48.1315H16.9132ZM3 38.1613C3 44.7495 8.3223 50.0945 14.902 50.1313L14.9244 46.1314C10.5438 46.1069 7 42.5479 7 38.1613H3ZM14.8298 26.192C8.28323 26.2675 3 31.5973 3 38.1613H7C7 33.791 10.5178 30.242 14.8759 30.1917L14.8298 26.192ZM30.5807 11.7201C21.2562 11.7201 13.6098 18.896 12.8596 28.0281L16.8461 28.3556C17.4273 21.2815 23.3555 15.7201 30.5807 15.7201V11.7201ZM48.3621 29.5015C48.3621 19.6811 40.4011 11.7201 30.5807 11.7201V15.7201C38.1919 15.7201 44.3621 21.8903 44.3621 29.5015H48.3621Z" fill="url(#paint4_linear_103_352)" mask="url(#path-3-outside-1_103_352)"/>
</g>
<path d="M72.556 56.047C71.36 56.047 70.348 55.633 69.52 54.805C68.692 53.977 68.278 52.965 68.278 51.769C68.278 50.573 68.692 49.561 69.52 48.733C70.348 47.905 71.36 47.491 72.556 47.491C73.706 47.491 74.672 47.905 75.454 48.733C76.282 49.561 76.696 50.573 76.696 51.769C76.696 52.965 76.282 53.977 75.454 54.805C74.672 55.633 73.706 56.047 72.556 56.047ZM75.592 62.188V100H69.313V62.188H75.592ZM104.716 61.498C109.316 61.498 113.042 62.901 115.894 65.707C118.746 68.467 120.172 72.469 120.172 77.713V100H113.962V78.61C113.962 74.838 113.019 71.963 111.133 69.985C109.247 67.961 106.671 66.949 103.405 66.949C100.093 66.949 97.4485 67.984 95.4705 70.054C93.5385 72.124 92.5725 75.137 92.5725 79.093V100H86.2935V62.188H92.5725V67.57C93.8145 65.638 95.4935 64.143 97.6095 63.085C99.7715 62.027 102.14 61.498 104.716 61.498ZM190.873 51.907L176.935 100H169.897L158.719 61.291L147.127 100L140.158 100.069L126.703 51.907H133.396L143.884 92.686L155.476 51.907H162.514L173.554 92.548L184.111 51.907H190.873ZM232.245 79.645C232.245 80.841 232.176 82.106 232.038 83.44H201.816C202.046 87.166 203.311 90.087 205.611 92.203C207.957 94.273 210.786 95.308 214.098 95.308C216.812 95.308 219.066 94.687 220.86 93.445C222.7 92.157 223.988 90.455 224.724 88.339H231.486C230.474 91.973 228.45 94.94 225.414 97.24C222.378 99.494 218.606 100.621 214.098 100.621C210.51 100.621 207.29 99.816 204.438 98.206C201.632 96.596 199.424 94.319 197.814 91.375C196.204 88.385 195.399 84.935 195.399 81.025C195.399 77.115 196.181 73.688 197.745 70.744C199.309 67.8 201.494 65.546 204.3 63.982C207.152 62.372 210.418 61.567 214.098 61.567C217.686 61.567 220.86 62.349 223.62 63.913C226.38 65.477 228.496 67.639 229.968 70.399C231.486 73.113 232.245 76.195 232.245 79.645ZM225.759 78.334C225.759 75.942 225.23 73.895 224.172 72.193C223.114 70.445 221.665 69.134 219.825 68.26C218.031 67.34 216.03 66.88 213.822 66.88C210.648 66.88 207.934 67.892 205.68 69.916C203.472 71.94 202.207 74.746 201.885 78.334H225.759ZM238.187 80.956C238.187 77.092 238.969 73.711 240.533 70.813C242.097 67.869 244.236 65.592 246.95 63.982C249.71 62.372 252.769 61.567 256.127 61.567C259.439 61.567 262.314 62.28 264.752 63.706C267.19 65.132 269.007 66.926 270.203 69.088V62.188H276.551V100H270.203V92.962C268.961 95.17 267.098 97.01 264.614 98.482C262.176 99.908 259.324 100.621 256.058 100.621C252.7 100.621 249.664 99.793 246.95 98.137C244.236 96.481 242.097 94.158 240.533 91.168C238.969 88.178 238.187 84.774 238.187 80.956ZM270.203 81.025C270.203 78.173 269.628 75.689 268.478 73.573C267.328 71.457 265.764 69.847 263.786 68.743C261.854 67.593 259.715 67.018 257.369 67.018C255.023 67.018 252.884 67.57 250.952 68.674C249.02 69.778 247.479 71.388 246.329 73.504C245.179 75.62 244.604 78.104 244.604 80.956C244.604 83.854 245.179 86.384 246.329 88.546C247.479 90.662 249.02 92.295 250.952 93.445C252.884 94.549 255.023 95.101 257.369 95.101C259.715 95.101 261.854 94.549 263.786 93.445C265.764 92.295 267.328 90.662 268.478 88.546C269.628 86.384 270.203 83.877 270.203 81.025ZM294.821 67.363V89.65C294.821 91.49 295.212 92.801 295.994 93.583C296.776 94.319 298.133 94.687 300.065 94.687H304.688V100H299.03C295.534 100 292.912 99.195 291.164 97.585C289.416 95.975 288.542 93.33 288.542 89.65V67.363H283.643V62.188H288.542V52.666H294.821V62.188H304.688V67.363H294.821ZM331.063 61.498C333.915 61.498 336.491 62.119 338.791 63.361C341.091 64.557 342.885 66.374 344.173 68.812C345.507 71.25 346.174 74.217 346.174 77.713V100H339.964V78.61C339.964 74.838 339.021 71.963 337.135 69.985C335.249 67.961 332.673 66.949 329.407 66.949C326.095 66.949 323.45 67.984 321.472 70.054C319.54 72.124 318.574 75.137 318.574 79.093V100H312.295V48.94H318.574V67.57C319.816 65.638 321.518 64.143 323.68 63.085C325.888 62.027 328.349 61.498 331.063 61.498ZM390.931 79.645C390.931 80.841 390.862 82.106 390.724 83.44H360.502C360.732 87.166 361.997 90.087 364.297 92.203C366.643 94.273 369.472 95.308 372.784 95.308C375.498 95.308 377.752 94.687 379.546 93.445C381.386 92.157 382.674 90.455 383.41 88.339H390.172C389.16 91.973 387.136 94.94 384.1 97.24C381.064 99.494 377.292 100.621 372.784 100.621C369.196 100.621 365.976 99.816 363.124 98.206C360.318 96.596 358.11 94.319 356.5 91.375C354.89 88.385 354.085 84.935 354.085 81.025C354.085 77.115 354.867 73.688 356.431 70.744C357.995 67.8 360.18 65.546 362.986 63.982C365.838 62.372 369.104 61.567 372.784 61.567C376.372 61.567 379.546 62.349 382.306 63.913C385.066 65.477 387.182 67.639 388.654 70.399C390.172 73.113 390.931 76.195 390.931 79.645ZM384.445 78.334C384.445 75.942 383.916 73.895 382.858 72.193C381.8 70.445 380.351 69.134 378.511 68.26C376.717 67.34 374.716 66.88 372.508 66.88C369.334 66.88 366.62 67.892 364.366 69.916C362.158 71.94 360.893 74.746 360.571 78.334H384.445ZM405.498 68.329C406.602 66.167 408.166 64.488 410.19 63.292C412.26 62.096 414.767 61.498 417.711 61.498V67.984H416.055C409.017 67.984 405.498 71.802 405.498 79.438V100H399.219V62.188H405.498V68.329Z" fill="white"/>
<defs>
<filter id="filter0_bd_103_352" x="-12" y="0.720123" width="91.3144" height="68.4114" filterUnits="userSpaceOnUse" color-interpolation-filters="sRGB">
<feFlood flood-opacity="0" result="BackgroundImageFix"/>
<feGaussianBlur in="BackgroundImageFix" stdDeviation="5"/>
<feComposite in2="SourceAlpha" operator="in" result="effect1_backgroundBlur_103_352"/>
<feColorMatrix in="SourceAlpha" type="matrix" values="0 0 0 0 0 0 0 0 0 0 0 0 0 0 0 0 0 0 127 0" result="hardAlpha"/>
<feOffset dy="4"/>
<feGaussianBlur stdDeviation="7.5"/>
<feComposite in2="hardAlpha" operator="out"/>
<feColorMatrix type="matrix" values="0 0 0 0 0 0 0 0 0 0 0 0 0 0 0 0 0 0 0.1 0"/>
<feBlend mode="normal" in2="effect1_backgroundBlur_103_352" result="effect2_dropShadow_103_352"/>
<feBlend mode="normal" in="SourceGraphic" in2="effect2_dropShadow_103_352" result="shape"/>
</filter>
<linearGradient id="paint0_linear_103_352" x1="58.4663" y1="9.84271" x2="47.0963" y2="33.2051" gradientUnits="userSpaceOnUse">
<stop offset="0.182844" stop-color="#FFE600"/>
<stop offset="0.980542" stop-color="#F09000"/>
</linearGradient>
<linearGradient id="paint1_linear_103_352" x1="45.0209" y1="5.1883" x2="62.6611" y2="47.5593" gradientUnits="userSpaceOnUse">
<stop stop-color="#FFE600"/>
<stop offset="1" stop-color="#9C8D00"/>
</linearGradient>
<linearGradient id="paint2_linear_103_352" x1="66.5194" y1="5.36875" x2="35.9846" y2="41.1604" gradientUnits="userSpaceOnUse">
<stop stop-color="#FFE600"/>
<stop offset="1" stop-color="#AA9900"/>
</linearGradient>
<linearGradient id="paint3_linear_103_352" x1="22.8139" y1="13.5766" x2="36.6004" y2="48.275" gradientUnits="userSpaceOnUse">
<stop stop-color="white"/>
<stop offset="0.708333" stop-color="#9DDCFF" stop-opacity="0.69"/>
</linearGradient>
<linearGradient id="paint4_linear_103_352" x1="31.7983" y1="1.80394" x2="50.8515" y2="62.2164" gradientUnits="userSpaceOnUse">
<stop stop-color="white"/>
<stop offset="0.713542" stop-color="#85C6EC" stop-opacity="0.71"/>
</linearGradient>
</defs>
</svg>
